<svg xmlns="http://www.w3.org/2000/svg" viewBox="0 0 24 24" width="24" height="24" role="img" aria-label="LINE">
  <path fill="currentColor" d="M12 2C6.48 2 2 5.69 2 10.22c0 4.06 3.55 7.46 8.35 8.1.32.07.77.21.88.49.1.25.07.64.03.9l-.14.85c-.04.25-.2.99.87.54 1.07-.45 5.77-3.4 7.87-5.82C21.27 13.66 22 12.03 22 10.22 22 5.69 17.52 2 12 2zM8.2 12.86H6.21c-.29 0-.52-.23-.52-.52V8.36c0-.29.23-.52.52-.52s.52.23.52.52v3.46H8.2c.29 0 .52.23.52.52s-.23.52-.52.52zm2.03-.52c0 .29-.23.52-.52.52s-.52-.23-.52-.52V8.36c0-.29.23-.52.52-.52s.52.23.52.52v3.98zm4.78 0c0 .22-.14.42-.36.49-.05.02-.11.03-.16.03-.16 0-.31-.08-.41-.21l-2.04-2.78v2.47c0 .29-.23.52-.52.52s-.52-.23-.52-.52V8.36c0-.22.14-.42.36-.49.05-.02.11-.03.16-.03.16 0 .31.08.41.22l2.04 2.78V8.36c0-.29.23-.52.52-.52s.52.23.52.52v3.98zm3.32-2.51c.29 0 .52.23.52.52s-.23.52-.52.52h-1.46v.94h1.46c.29 0 .52.23.52.52s-.23.52-.52.52h-1.99c-.29 0-.52-.23-.52-.52V8.36c0-.29.23-.52.52-.52h1.99c.29 0 .52.23.52.52s-.23.52-.52.52h-1.46v.94h1.46z"/>
</svg>
